<mxfile host="app.diagrams.net" modified="2022-10-07T23:12:01.340Z" agent="5.0 (Windows NT 10.0; Win64; x64) AppleWebKit/537.36 (KHTML, like Gecko) Chrome/106.0.0.0 Safari/537.36" etag="IlKR2aBnnFrrSC276NSR" version="20.4.0" type="github">
  <diagram id="9RNbWKkVsuG0CfZWJW0D" name="PÃ¡gina-1">
    <mxGraphModel dx="1038" dy="571" grid="1" gridSize="10" guides="1" tooltips="1" connect="1" arrows="1" fold="1" page="1" pageScale="1" pageWidth="827" pageHeight="1169" math="0" shadow="0">
      <root>
        <mxCell id="0" />
        <mxCell id="1" parent="0" />
        <mxCell id="RArkXA8TGLQUptP-HqG9-3" value="" style="edgeStyle=orthogonalEdgeStyle;rounded=0;orthogonalLoop=1;jettySize=auto;html=1;" edge="1" parent="1" source="RArkXA8TGLQUptP-HqG9-1" target="RArkXA8TGLQUptP-HqG9-2">
          <mxGeometry relative="1" as="geometry" />
        </mxCell>
        <mxCell id="RArkXA8TGLQUptP-HqG9-1" value="START" style="rounded=1;whiteSpace=wrap;html=1;" vertex="1" parent="1">
          <mxGeometry x="354" y="40" width="120" height="60" as="geometry" />
        </mxCell>
        <mxCell id="RArkXA8TGLQUptP-HqG9-5" value="" style="edgeStyle=orthogonalEdgeStyle;rounded=0;orthogonalLoop=1;jettySize=auto;html=1;" edge="1" parent="1" source="RArkXA8TGLQUptP-HqG9-2" target="RArkXA8TGLQUptP-HqG9-4">
          <mxGeometry relative="1" as="geometry" />
        </mxCell>
        <mxCell id="RArkXA8TGLQUptP-HqG9-2" value="select two random cards for the user and for the comoputer" style="rounded=1;whiteSpace=wrap;html=1;" vertex="1" parent="1">
          <mxGeometry x="354" y="140" width="120" height="60" as="geometry" />
        </mxCell>
        <mxCell id="RArkXA8TGLQUptP-HqG9-7" value="" style="edgeStyle=orthogonalEdgeStyle;rounded=0;orthogonalLoop=1;jettySize=auto;html=1;" edge="1" parent="1" source="RArkXA8TGLQUptP-HqG9-4" target="RArkXA8TGLQUptP-HqG9-6">
          <mxGeometry relative="1" as="geometry" />
        </mxCell>
        <mxCell id="RArkXA8TGLQUptP-HqG9-4" value="add up the value of the first cards" style="rounded=1;whiteSpace=wrap;html=1;" vertex="1" parent="1">
          <mxGeometry x="354" y="240" width="120" height="60" as="geometry" />
        </mxCell>
        <mxCell id="RArkXA8TGLQUptP-HqG9-6" value="check that the result is equal to 21" style="rounded=1;whiteSpace=wrap;html=1;" vertex="1" parent="1">
          <mxGeometry x="354" y="340" width="120" height="60" as="geometry" />
        </mxCell>
      </root>
    </mxGraphModel>
  </diagram>
</mxfile>
